<svg width="16" height="16" viewBox="0 0 16 16" fill="none" xmlns="http://www.w3.org/2000/svg">
<path d="M14.6666 0H1.3334C0.6002 0 0 0.6002 0 1.3334V14.6668C0 15.3998 0.6002 16 1.3334 16H14.6668C15.3998 16 16 15.3998 16 14.6666V1.3334C16 0.6002 15.3998 0 14.6666 0ZM3.3334 5.3334C3.3334 4.2292 4.2292 3.3334 5.3334 3.3334C6.4376 3.3334 7.3334 4.2292 7.3334 5.3334H6C6 4.965 5.7014 4.6668 5.3334 4.6668C4.9654 4.6668 4.6668 4.965 4.6668 5.3334V7.9994C4.6668 8.3672 4.9652 8.666 5.3334 8.666C5.7016 8.666 6 8.3672 6 7.9994H7.3334C7.3334 9.1042 6.4376 9.9994 5.3334 9.9994C4.2292 9.9994 3.3334 9.104 3.3334 7.9994V5.3334ZM12.6666 12.6666H3.3334V11.3334H12.6668V12.6666H12.6666ZM11 10H9.6666L8 3.3334H9.3744L10.3334 7.1694L11.2924 3.3334H12.6666L11 10Z" fill="#3D5C49"/>
</svg>
