<svg width="20" height="20" viewBox="0 0 20 20" fill="none" xmlns="http://www.w3.org/2000/svg">
<path d="M17.2353 3.09733L14.236 0.098C14.1756 0.0373333 14.0923 0 14 0H4.33329C3.41429 0 2.66663 0.747667 2.66663 1.66667V16C2.66663 16.919 3.41429 17.6667 4.33329 17.6667H7.99996V20H8.66663V17.6667H13.6666C13.8506 17.6667 14 17.5177 14 17.3333V15.6667C14 15.0467 14.4256 14.5237 15 14.3757V17.3333V20H15.6666V17.6667C16.5856 17.6667 17.3333 16.919 17.3333 16V3.33333C17.3333 3.241 17.296 3.15767 17.2353 3.09733ZM14.3333 1.138L16.1953 3H14.3333V1.138ZM16.6666 16C16.6666 16.5513 16.218 17 15.6666 17V14C15.6666 13.8157 15.5173 13.6667 15.3333 13.6667C14.2303 13.6667 13.3333 14.5637 13.3333 15.6667V17H4.33329C3.78196 17 3.33329 16.5513 3.33329 16V1.66667C3.33329 1.11533 3.78196 0.666667 4.33329 0.666667H13.6666V3.33333C13.6666 3.51767 13.816 3.66667 14 3.66667H16.6666V16Z" fill="#3D5C49"/>
<path d="M9.33337 2H4.66671C4.48271 2 4.33337 2.149 4.33337 2.33333V7C4.33337 7.18433 4.48271 7.33333 4.66671 7.33333H6.00004H8.00004H9.33337C9.51737 7.33333 9.66671 7.18433 9.66671 7V2.33333C9.66671 2.149 9.51737 2 9.33337 2ZM7.66671 6.66667H6.33337V6C6.33337 5.63233 6.63237 5.33333 7.00004 5.33333C7.36771 5.33333 7.66671 5.63233 7.66671 6V6.66667ZM6.66671 4.33333C6.66671 4.14933 6.81637 4 7.00004 4C7.18371 4 7.33337 4.14933 7.33337 4.33333C7.33337 4.51733 7.18371 4.66667 7.00004 4.66667C6.81637 4.66667 6.66671 4.51733 6.66671 4.33333ZM9.00004 6.66667H8.33337V6C8.33337 5.563 8.11937 5.17833 7.79371 4.935C7.92137 4.767 8.00004 4.56 8.00004 4.33333C8.00004 3.782 7.55137 3.33333 7.00004 3.33333C6.44871 3.33333 6.00004 3.782 6.00004 4.33333C6.00004 4.56 6.07871 4.767 6.20637 4.935C5.88071 5.17833 5.66671 5.563 5.66671 6V6.66667H5.00004V2.66667H9.00004V6.66667Z" fill="#3D5C49"/>
<path d="M12 3H10.3334V3.66667H12V3Z" fill="#3D5C49"/>
<path d="M12.3334 4.33337H10.3334V5.00004H12.3334V4.33337Z" fill="#3D5C49"/>
<path d="M14.6667 4.33337H13V5.00004H14.6667V4.33337Z" fill="#3D5C49"/>
<path d="M14.6667 5.66663H10.3334V6.33329H14.6667V5.66663Z" fill="#3D5C49"/>
<path d="M8.66667 8.33337H6V9.00004H8.66667V8.33337Z" fill="#3D5C49"/>
<path d="M11.3334 8.33337H9.33337V9.00004H11.3334V8.33337Z" fill="#3D5C49"/>
<path d="M15.3333 8.33337H12V9.00004H15.3333V8.33337Z" fill="#3D5C49"/>
<path d="M7.33329 9.66663H4.66663V10.3333H7.33329V9.66663Z" fill="#3D5C49"/>
<path d="M13.3333 9.66663H8V10.3333H13.3333V9.66663Z" fill="#3D5C49"/>
<path d="M15.3333 9.66663H14V10.3333H15.3333V9.66663Z" fill="#3D5C49"/>
<path d="M5.99996 11H4.66663V11.6667H5.99996V11Z" fill="#3D5C49"/>
<path d="M10.6666 11H6.66663V11.6667H10.6666V11Z" fill="#3D5C49"/>
<path d="M15.3334 11H11.3334V11.6667H15.3334V11Z" fill="#3D5C49"/>
<path d="M5.99996 12.3334H4.66663V13H5.99996V12.3334Z" fill="#3D5C49"/>
<path d="M10.6666 12.3334H6.66663V13H10.6666V12.3334Z" fill="#3D5C49"/>
<path d="M15.3334 12.3334H11.3334V13H15.3334V12.3334Z" fill="#3D5C49"/>
<path d="M7.66663 13.6666H4.66663V14.3333H7.66663V13.6666Z" fill="#3D5C49"/>
<path d="M13 13.6666H8.33337V14.3333H13V13.6666Z" fill="#3D5C49"/>
<path d="M5.99996 15H4.66663V15.6667H5.99996V15Z" fill="#3D5C49"/>
<path d="M12.3333 15H6.66663V15.6667H12.3333V15Z" fill="#3D5C49"/>
</svg>
