<svg width="20" height="20" viewBox="0 0 20 20" fill="none" xmlns="http://www.w3.org/2000/svg">
<path d="M18.1432 15.5034H13.7002V20L18.1432 15.5034Z" fill="#3D5C49"/>
<path d="M18.1432 1.24998C18.1432 0.559059 17.5841 0 16.8932 0H3.10679C2.41653 0 1.85681 0.559059 1.85681 1.24998V18.75C1.85681 19.4409 2.41649 20 3.10679 20H12.4287V14.719C12.4287 14.3735 12.7082 14.094 13.0537 14.094H18.1432V1.24998ZM3.73601 3.132H10V4.54139H3.73601V3.132V3.132ZM3.73601 7.04698H10V8.45637H3.73601V7.04698V7.04698ZM10 16.2864H3.73601V14.877H10V16.2864ZM15.9508 12.3714H3.73601V10.962H15.9508V12.3714ZM15.9508 8.4564H12.0358V3.132H15.9508V8.4564Z" fill="#3D5C49"/>
</svg>
